# xmcd
#
# Track frame offsets:
#	150
#	16550
#	34900
#	54682
#	70045
#	87985
#	103535
#	121815
#	138480
#	154942
#	174312
#	190157
#	211742
#	232301
#	247046
#	269990
#	287538
#	306065
#	325353
#
# Disc length: 4627 seconds
#
# Revision: 1
# Processed by: cddbd v1.5PL3 Copyright (c) Steve Scherf et al.
# Submitted via: audiograbber 1.83.01
#
DISCID=12121113
DTITLE=Geri Halliwell - Scream if you wanna go faster
DYEAR=2001
DGENRE=pop
TTITLE0=Scream if you wanna go faster
TTITLE1=Shake your bootie cutie
TTITLE2=Calling
TTITLE3=Feels like sex
TTITLE4=Circles round the moon
TTITLE5=Love is the only light
TTITLE6=Strength of a woman
TTITLE7=Don't call me baby
TTITLE8=Lovey dovey stuff
TTITLE9=It's raining men
TTITLE10=Heaven and hell
TTITLE11=I was made that way
TTITLE12=Look at me
TTITLE13=Mi chico latino
TTITLE14=Walk away
TTITLE15=Lift me up
TTITLE16=Sometime
TTITLE17=Someone watching over me
TTITLE18=Goodbye
EXTD=
EXTT0=
EXTT1=
EXTT2=
EXTT3=
EXTT4=
EXTT5=
EXTT6=
EXTT7=
EXTT8=
EXTT9=
EXTT10=
EXTT11=
EXTT12=
EXTT13=
EXTT14=
EXTT15=
EXTT16=
EXTT17=
EXTT18=
PLAYORDER=
